<?xml version="1.0" standalone="no"?>
<!DOCTYPE svg PUBLIC "-//W3C//DTD SVG 20010904//EN"
 "http://www.w3.org/TR/2001/REC-SVG-20010904/DTD/svg10.dtd">
<svg version="1.0" xmlns="http://www.w3.org/2000/svg"
 width="128.000000pt" height="128.000000pt" viewBox="0 0 128.000000 128.000000"
 preserveAspectRatio="xMidYMid meet">
<metadata>
Created by potrace 1.16, written by Peter Selinger 2001-2019
</metadata>
<g transform="translate(0.000000,128.000000) scale(0.100000,-0.100000)"
fill="#000000" stroke="none">
<path d="M635 1188 c-44 -5 -86 -9 -93 -10 -7 -1 -31 -17 -53 -37 -34 -30 -43
-47 -56 -101 -15 -68 -27 -245 -17 -270 4 -13 6 -13 14 0 7 10 10 -4 10 -45 0
-37 4 -55 9 -47 6 10 10 7 15 -13 8 -30 1 -41 -28 -47 -20 -3 -30 -17 -46 -60
-14 -41 -75 -76 -151 -87 -37 -5 -80 -16 -97 -25 -17 -9 -40 -16 -50 -16 -25
0 -37 -15 -52 -67 -11 -36 -10 -67 5 -190 13 -105 22 -152 33 -160 12 -10 90
-13 313 -13 248 0 299 2 309 15 15 18 170 118 175 113 2 -2 -31 -30 -73 -63
l-77 -60 34 -3 c28 -3 41 3 75 36 22 21 73 60 111 87 39 27 81 59 94 72 13 13
31 23 40 23 9 0 38 16 65 35 48 34 48 34 22 41 -14 3 -26 12 -26 19 0 20 -102
74 -153 81 -24 4 -50 10 -56 14 -7 4 -15 33 -18 64 -7 67 -10 69 -113 85 -41
7 -87 16 -103 21 -25 8 -26 7 -17 -10 8 -15 21 -20 55 -20 25 0 45 -4 45 -10
0 -5 6 -10 13 -10 7 0 27 -13 44 -29 28 -26 31 -34 27 -68 -3 -21 -7 -43 -9
-50 -5 -16 -93 -29 -107 -15 -5 5 -27 8 -47 5 -38 -5 -38 -5 -50 40 -6 25 -11
56 -11 68 0 12 -5 51 -11 86 l-11 63 -35 0 c-28 0 -33 3 -29 18 2 9 7 26 10
37 5 20 -5 48 -18 46 -3 -1 -6 2 -5 5 0 4 -4 10 -10 14 -6 3 -15 21 -21 38 -6
23 -6 30 2 26 7 -5 9 -2 6 7 -4 10 1 15 13 16 12 1 19 -5 19 -16 0 -10 8 -25
18 -34 18 -16 18 -15 14 14 -3 20 -1 29 5 26 6 -4 8 3 6 16 -5 25 46 82 54 60
3 -8 14 -1 30 17 14 17 29 27 34 24 5 -3 7 -10 4 -15 -4 -5 10 0 29 12 20 12
36 26 37 32 1 7 4 1 8 -13 4 -14 20 -32 37 -40 17 -9 29 -21 26 -28 -2 -7 2
-10 12 -6 8 3 12 12 9 21 -5 13 -3 13 15 4 24 -13 27 -38 12 -90 -5 -19 -8
-36 -6 -38 10 -10 39 14 64 53 16 24 32 41 36 37 10 -10 7 106 -4 127 -5 11
-15 29 -21 41 -8 16 -8 19 1 14 9 -6 9 -2 1 13 -14 27 -28 35 -36 22 -3 -5
-13 -10 -21 -10 -8 0 -12 4 -9 10 10 17 -25 58 -68 78 -55 26 -105 31 -202 20z"/>
</g>
</svg>
